<svg width="105" height="29" viewBox="0 0 105 29" fill="none" xmlns="http://www.w3.org/2000/svg">
<path d="M22.5974 18.0872H23.6203C23.7041 17.4956 23.7466 16.8988 23.7476 16.3012C23.7476 9.51577 18.4314 4.03085 11.8738 4.03085C5.31619 4.03085 0 9.51577 0 16.3012C0 23.0866 5.31619 28.5691 11.8738 28.5691C14.3185 28.5576 16.7002 27.7805 18.6944 26.3436C20.6886 24.9066 22.1983 22.8798 23.0176 20.5393H18.3473C17.6727 21.6747 16.722 22.6146 15.5866 23.2688C14.4513 23.923 13.1694 24.2694 11.8642 24.2748C8.23601 24.2748 5.19133 21.6275 4.42055 18.0872H22.5974ZM11.8738 8.32753C13.5327 8.34256 15.1423 8.90276 16.4619 9.92439C17.7816 10.946 18.7403 12.3742 19.195 13.9955H4.56222C5.01592 12.3753 5.97308 10.9478 7.29081 9.92583C8.60855 8.90388 10.2162 8.34236 11.8738 8.32509V8.32753Z" fill="#122345"/>
<path d="M68.6734 8.5397V4.24301H61.6044V0H60.5983L53.0874 7.51493V8.5397H57.3879V20.344C57.3879 22.3225 58.1602 24.2202 59.5354 25.6208C60.9107 27.0214 62.7764 27.8105 64.7235 27.815H68.6734V23.5134H64.7235C63.8956 23.5134 63.1016 23.1793 62.5163 22.5844C61.9309 21.9896 61.602 21.1828 61.602 20.3416V8.5397H68.6734Z" fill="#122345"/>
<path d="M46.5058 19.368C45.8078 21.0699 44.5511 22.4736 42.9494 23.3401C41.3477 24.2067 39.5001 24.4826 37.7208 24.1209C35.9415 23.7592 34.3404 22.7823 33.19 21.3564C32.0397 19.9305 31.411 18.1436 31.411 16.2998C31.411 14.4559 32.0397 12.6691 33.19 11.2431C34.3404 9.81719 35.9415 8.84029 37.7208 8.47863C39.5001 8.11697 41.3477 8.39288 42.9494 9.25942C44.5511 10.126 45.8078 11.5296 46.5058 13.2316H50.9576C50.2227 10.34 48.4752 7.82 46.0426 6.14396C43.6101 4.46792 40.6595 3.7509 37.7439 4.12728C34.8283 4.50366 32.1478 5.94761 30.205 8.18849C28.2621 10.4294 27.1902 13.3133 27.1902 16.2998C27.1902 19.2862 28.2621 22.1702 30.205 24.411C32.1478 26.6519 34.8283 28.0959 37.7439 28.4722C40.6595 28.8486 43.6101 28.1316 46.0426 26.4556C48.4752 24.7795 50.2227 22.2595 50.9576 19.368H46.5058Z" fill="#122345"/>
<path d="M83.5606 4.03029C76.6693 4.03029 71.0746 9.52254 71.0746 16.3006C71.0746 23.0787 76.6621 28.5685 83.5606 28.5685C90.3151 28.5685 95.8066 23.2885 96.0275 16.6959V4.00833L83.5606 4.03029ZM83.5606 24.2816C78.9984 24.2816 75.3078 20.7047 75.3078 16.3079C75.3078 11.9112 79.02 8.32454 83.5606 8.32454C88.1013 8.32454 91.8207 11.9015 91.8207 16.3006C91.8207 20.6998 88.1229 24.2743 83.5606 24.2743V24.2816Z" fill="#122345"/>
<rect x="98.4574" y="4.41446" width="5.45608" height="5.45608" rx="2.72804" stroke="#122345" stroke-width="0.496007"/>
<path d="M100.219 8.53531V5.74975H101.454C101.702 5.74975 101.891 5.77508 102.02 5.82575C102.149 5.87516 102.252 5.96319 102.33 6.08987C102.407 6.21654 102.445 6.35652 102.445 6.50979C102.445 6.7074 102.381 6.87398 102.254 7.00952C102.126 7.14506 101.928 7.2312 101.661 7.26794C101.758 7.31481 101.832 7.36104 101.883 7.40665C101.991 7.50545 102.093 7.62896 102.189 7.77717L102.673 8.53531H102.21L101.841 7.95578C101.734 7.78857 101.645 7.66063 101.575 7.57196C101.506 7.48328 101.443 7.42121 101.387 7.38574C101.333 7.35028 101.277 7.32557 101.22 7.31164C101.178 7.30277 101.11 7.29834 101.015 7.29834H100.587V8.53531H100.219ZM100.587 6.97912H101.379C101.548 6.97912 101.68 6.96202 101.775 6.92782C101.87 6.89235 101.942 6.83661 101.991 6.76061C102.041 6.68334 102.065 6.59973 102.065 6.50979C102.065 6.37805 102.017 6.26975 101.921 6.18487C101.826 6.1 101.675 6.05757 101.469 6.05757H100.587V6.97912Z" fill="#122345"/>
<path fill-rule="evenodd" clip-rule="evenodd" d="M100.126 8.62817V5.6569H101.454C101.706 5.6569 101.908 5.68225 102.053 5.73917C102.203 5.79649 102.322 5.89878 102.409 6.04152C102.495 6.18325 102.538 6.34005 102.538 6.5098C102.538 6.72954 102.466 6.91938 102.321 7.07326C102.218 7.18212 102.08 7.25967 101.912 7.3097C101.924 7.31892 101.935 7.32823 101.945 7.33763L101.946 7.33823C102.06 7.44329 102.167 7.57314 102.267 7.72659L102.267 7.72717L102.843 8.62817H102.159L101.763 8.00605C101.656 7.83986 101.569 7.71459 101.502 7.62933C101.435 7.54393 101.38 7.49131 101.337 7.46409L101.336 7.46357C101.29 7.43352 101.245 7.41346 101.199 7.4022C101.167 7.39566 101.108 7.3912 101.015 7.3912H100.68V8.62817H100.126ZM100.587 7.29834H101.015C101.11 7.29834 101.178 7.30278 101.22 7.31165C101.277 7.32558 101.333 7.35028 101.387 7.38575C101.443 7.42122 101.506 7.48329 101.575 7.57196C101.645 7.66063 101.734 7.78857 101.841 7.95578L102.21 8.53532H102.673L102.189 7.77717C102.093 7.62896 101.991 7.50546 101.883 7.40665C101.858 7.38444 101.828 7.36208 101.792 7.33958C101.755 7.31587 101.711 7.29199 101.661 7.26794C101.713 7.2608 101.762 7.2518 101.809 7.24094C102.002 7.19587 102.15 7.11873 102.254 7.00953C102.381 6.87399 102.445 6.70741 102.445 6.5098C102.445 6.35652 102.407 6.21655 102.33 6.08987C102.252 5.9632 102.149 5.87516 102.02 5.82576C101.891 5.77509 101.702 5.74975 101.454 5.74975H100.218V8.53532H100.587V7.29834Z" fill="#122345"/>
</svg>
